<svg width="48" height="48" viewBox="0 0 48 48" fill="none" xmlns="http://www.w3.org/2000/svg">
<path d="M24 48C37.2548 48 48 37.2548 48 24C48 10.7452 37.2548 0 24 0C10.7452 0 0 10.7452 0 24C0 37.2548 10.7452 48 24 48Z" fill="#FD8469"/>
<path d="M36.1323 40.7433H11.8677C11.074 40.7433 10.4315 40.1008 10.4315 39.3071V8.73071C10.4315 7.93701 11.074 7.29449 11.8677 7.29449H36.1323C36.926 7.29449 37.5685 7.93701 37.5685 8.73071V39.3071C37.5685 40.1008 36.926 40.7433 36.1323 40.7433Z" fill="#324A5E"/>
<path d="M12.4346 36.5102V11.4898C13.6441 11.4898 14.6268 10.5071 14.6268 9.29764H33.2976C33.2976 10.5071 34.2803 11.4898 35.4898 11.4898V36.4724C34.2803 36.4724 33.2976 37.4551 33.2976 38.6646H14.6646C14.6646 37.4929 13.6819 36.5102 12.4346 36.5102Z" fill="white"/>
<path d="M20.5606 11.7165C19.5024 11.5654 18.1795 12.548 18.0661 13.4929C19.011 13.2283 19.9181 12.548 20.5606 11.7165Z" fill="#FFD05B"/>
<path d="M17.5748 12.0945C16.5543 13.0772 16.5543 14.3244 17.1969 14.6646C17.726 13.7197 18.0662 12.6614 17.5748 12.0945Z" fill="#FFD05B"/>
<path d="M19.4268 14.0599C18.9354 13.4929 17.8016 13.6819 17.1969 14.6646C17.8772 15.0425 18.7465 14.6646 19.4268 14.0599Z" fill="#FFD05B"/>
<path d="M16.252 13.6441C15.4961 14.778 15.7984 16.0252 16.5165 16.2142C16.8189 15.1559 16.8567 14.0599 16.252 13.6441Z" fill="#FFD05B"/>
<path d="M18.5197 15.1181C17.915 14.6646 16.8945 15.0803 16.5165 16.1764C17.2347 16.4032 18.0284 15.874 18.5197 15.1181Z" fill="#FFD05B"/>
<path d="M15.3827 15.3827C14.9291 16.6299 15.4583 17.7638 16.1764 17.8016C16.2898 16.7433 16.063 15.6851 15.3827 15.3827Z" fill="#FFD05B"/>
<path d="M17.8772 16.3276C17.1968 16.0252 16.2898 16.6299 16.1764 17.7638C16.9323 17.8394 17.5748 17.1591 17.8772 16.3276Z" fill="#FFD05B"/>
<path d="M14.8913 17.2346C14.7024 18.5575 15.4583 19.5402 16.2142 19.4268C16.063 18.3685 15.6094 17.3858 14.8913 17.2346Z" fill="#FFD05B"/>
<path d="M17.5748 17.6504C16.8567 17.4992 16.1008 18.2929 16.2142 19.4268C16.9323 19.3134 17.4236 18.4819 17.5748 17.6504Z" fill="#FFD05B"/>
<path d="M14.8158 19.1622C14.8913 20.485 15.874 21.2787 16.5543 21.0142C16.2142 20.0315 15.5717 19.1622 14.8158 19.1622Z" fill="#FFD05B"/>
<path d="M17.4992 18.9732C16.7433 18.9732 16.1764 19.9181 16.5543 21.0142C17.2347 20.7496 17.5748 19.8425 17.4992 18.9732Z" fill="#FFD05B"/>
<path d="M15.1559 21.0898C15.5339 22.3748 16.6677 22.9795 17.2725 22.526C16.6677 21.6189 15.874 20.9008 15.1559 21.0898Z" fill="#FFD05B"/>
<path d="M17.726 20.2961C17.0079 20.485 16.6299 21.5055 17.2347 22.526C17.8772 22.1102 17.9906 21.1653 17.726 20.2961Z" fill="#FFD05B"/>
<path d="M15.9118 22.8662C16.5543 24.0378 17.8394 24.378 18.3307 23.8488C17.4992 23.0551 16.5921 22.526 15.9118 22.8662Z" fill="#FFD05B"/>
<path d="M18.2551 21.5433C17.5748 21.8835 17.4614 22.9795 18.2929 23.8488C18.822 23.2819 18.6709 22.337 18.2551 21.5433Z" fill="#FFD05B"/>
<path d="M20.7496 25.0205C19.9559 24.8315 19.2378 24.4913 18.5575 24.0756C19.0488 24.7181 19.6535 25.285 20.4094 25.7764C20.5228 25.5118 20.6362 25.285 20.7496 25.0205Z" fill="#FFD05B"/>
<path d="M27.4394 11.7165C28.4976 11.5654 29.8205 12.548 29.9339 13.4929C28.989 13.2283 28.0819 12.548 27.4394 11.7165Z" fill="#FFD05B"/>
<path d="M30.4252 12.0945C31.4456 13.0772 31.4456 14.3244 30.8031 14.6646C30.274 13.7197 29.9339 12.6614 30.4252 12.0945Z" fill="#FFD05B"/>
<path d="M28.5732 14.0599C29.0646 13.4929 30.1984 13.6819 30.8032 14.6646C30.1228 15.0425 29.2535 14.6646 28.5732 14.0599Z" fill="#FFD05B"/>
<path d="M31.748 13.6441C32.504 14.778 32.2016 16.0252 31.4835 16.2142C31.1811 15.1559 31.1433 14.0599 31.748 13.6441Z" fill="#FFD05B"/>
<path d="M29.4803 15.1181C30.085 14.6646 31.1055 15.0803 31.4835 16.1764C30.7654 16.4032 29.9717 15.874 29.4803 15.1181Z" fill="#FFD05B"/>
<path d="M32.6173 15.3827C33.0709 16.6299 32.5417 17.7638 31.8236 17.8016C31.7102 16.7433 31.937 15.6851 32.6173 15.3827Z" fill="#FFD05B"/>
<path d="M30.1228 16.3276C30.8031 16.0252 31.7102 16.6299 31.8236 17.7638C31.0677 17.8394 30.4252 17.1591 30.1228 16.3276Z" fill="#FFD05B"/>
<path d="M33.1087 17.2346C33.2977 18.5575 32.5417 19.5402 31.7858 19.4268C31.937 18.3685 32.3906 17.3858 33.1087 17.2346Z" fill="#FFD05B"/>
<path d="M30.4252 17.6504C31.1433 17.4992 31.8992 18.2929 31.7859 19.4268C31.0677 19.3134 30.5764 18.4819 30.4252 17.6504Z" fill="#FFD05B"/>
<path d="M33.1843 19.1622C33.1087 20.485 32.126 21.2787 31.4457 21.0142C31.7858 20.0315 32.4284 19.1622 33.1843 19.1622Z" fill="#FFD05B"/>
<path d="M30.5008 18.9732C31.2567 18.9732 31.8236 19.9181 31.4457 21.0142C30.7653 20.7496 30.4252 19.8425 30.5008 18.9732Z" fill="#FFD05B"/>
<path d="M32.8441 21.0898C32.4661 22.3748 31.3323 22.9795 30.7276 22.526C31.3323 21.6189 32.126 20.9008 32.8441 21.0898Z" fill="#FFD05B"/>
<path d="M30.274 20.2961C30.9921 20.485 31.3701 21.5055 30.7654 22.526C30.1228 22.1102 30.0095 21.1653 30.274 20.2961Z" fill="#FFD05B"/>
<path d="M32.0882 22.8662C31.4457 24.0378 30.1606 24.378 29.6693 23.8488C30.5008 23.0551 31.4079 22.526 32.0882 22.8662Z" fill="#FFD05B"/>
<path d="M29.7449 21.5433C30.4252 21.8835 30.5386 22.9795 29.7071 23.8488C29.178 23.2819 29.3291 22.337 29.7449 21.5433Z" fill="#FFD05B"/>
<path d="M27.2504 25.0205C28.0441 24.8315 28.7622 24.4913 29.4425 24.0756C28.9512 24.7181 28.3465 25.285 27.5906 25.7764C27.4772 25.5118 27.3638 25.285 27.2504 25.0205Z" fill="#FFD05B"/>
<path d="M27.7795 21.2409C26.8346 22.148 25.5118 22.715 24 22.715C22.4882 22.715 21.1654 22.148 20.2205 21.2409C20.3717 20.7496 20.7496 20.3339 21.2032 20.1071L22.6772 19.389C22.715 19.2 22.9417 18.9354 22.9417 18.9354C22.8283 18.7843 22.7528 18.5953 22.6772 18.4063C22.5638 18.4063 22.4504 18.2929 22.3748 18.1795C22.2992 18.0283 22.2992 17.8772 22.3748 17.8016C22.148 17.1969 21.9969 16.252 22.7528 15.5717L22.3748 15.6472C22.3748 15.6472 22.8283 14.8157 23.7354 15.1181C23.7354 15.1181 23.6598 14.9669 23.3575 14.8913C23.3575 14.8913 23.7732 14.7024 24 15.0047C24 15.0047 24.1512 14.8913 24 14.778C24 14.778 24.7181 14.8158 25.3228 15.3827C26.1543 16.1764 25.9654 17.1969 25.663 17.8772C25.7008 17.9528 25.7008 18.1039 25.6252 18.2173C25.5496 18.3307 25.474 18.4441 25.3606 18.4441C25.285 18.5197 25.1339 18.8598 25.0583 18.9732C25.0583 18.9732 25.285 19.2378 25.3228 19.4268L26.7969 20.1449C27.2504 20.3339 27.6284 20.7496 27.7795 21.2409Z" fill="#84DBFF"/>
<path d="M32.3906 28.989H15.6095V29.7827H32.3906V28.989Z" fill="#CED5E0"/>
<path d="M32.3906 30.9165H15.6095V31.7102H32.3906V30.9165Z" fill="#CED5E0"/>
<path d="M32.3906 32.8441H15.6095V33.6378H32.3906V32.8441Z" fill="#CED5E0"/>
<path d="M25.2472 34.7717H15.6095V35.5654H25.2472V34.7717Z" fill="#CED5E0"/>
</svg>
