<svg width="48" height="48" viewBox="0 0 48 48" fill="none" xmlns="http://www.w3.org/2000/svg">
<path d="M24 48C37.2548 48 48 37.2548 48 24C48 10.7452 37.2548 0 24 0C10.7452 0 0 10.7452 0 24C0 37.2548 10.7452 48 24 48Z" fill="#EDC92C"/>
<path d="M36.4578 23.9985C36.4578 30.8809 30.8802 36.4578 23.9989 36.4578C17.1172 36.4578 11.54 30.8806 11.54 23.9985C11.54 17.1176 17.1172 11.54 23.9989 11.54C30.8802 11.5396 36.4578 17.1176 36.4578 23.9985Z" fill="#E9C29C"/>
<path d="M36.4578 23.9985L27.9629 16.3536C27.9629 16.3536 26.1545 19.349 21.3291 21.5319C16.6773 23.6355 11.54 23.9982 11.54 23.9982C11.54 17.1173 17.1172 11.5397 23.9989 11.5397C30.8802 11.5396 36.4578 17.1176 36.4578 23.9985Z" fill="#A46434"/>
<path d="M20.2634 27.6525C21.2061 27.6525 21.9703 26.8452 21.9703 25.8493C21.9703 24.8535 21.2061 24.0462 20.2634 24.0462C19.3207 24.0462 18.5565 24.8535 18.5565 25.8493C18.5565 26.8452 19.3207 27.6525 20.2634 27.6525Z" fill="#343433"/>
<path d="M27.6609 27.6525C28.6036 27.6525 29.3678 26.8452 29.3678 25.8493C29.3678 24.8535 28.6036 24.0462 27.6609 24.0462C26.7182 24.0462 25.954 24.8535 25.954 25.8493C25.954 26.8452 26.7182 27.6525 27.6609 27.6525Z" fill="#343433"/>
<path d="M28.8774 25.1665C28.8774 25.5641 28.5724 25.8873 28.1945 25.8873C27.8189 25.8873 27.5135 25.5637 27.5135 25.1665C27.5135 24.7674 27.8189 24.445 28.1945 24.445C28.5723 24.4449 28.8774 24.7674 28.8774 25.1665Z" fill="white"/>
<path d="M21.4621 25.1665C21.4621 25.5641 21.157 25.8873 20.7788 25.8873C20.4025 25.8873 20.0971 25.5637 20.0971 25.1665C20.0971 24.7674 20.4025 24.445 20.7788 24.445C21.157 24.4449 21.4621 24.7674 21.4621 25.1665Z" fill="white"/>
<path d="M13.9619 24.5109C13.9619 27.186 13.9888 29.3537 12.1232 29.3537C10.2571 29.3537 8.74472 27.1856 8.74472 24.5109C8.74472 21.8361 10.2572 19.6676 12.1232 19.6676C13.9888 19.6673 13.9619 21.8361 13.9619 24.5109Z" fill="#357180"/>
<path d="M39.228 24.5109C39.228 27.186 37.7155 29.3537 35.8492 29.3537C33.9835 29.3537 34.0105 27.1856 34.0105 24.5109C34.0105 21.8361 33.9835 19.6676 35.8492 19.6676C37.7152 19.6673 39.228 21.8361 39.228 24.5109Z" fill="#357180"/>
<path d="M24.0812 10.6255C31.6458 10.6255 37.8843 17.7747 38.8075 24.8727C38.8833 24.277 38.9284 23.6699 38.9284 23.0522C38.9284 15.0954 32.2805 6.98474 24.0808 6.98474C15.8811 6.98474 9.23389 15.0954 9.23389 23.0523C9.23389 23.6696 9.27898 24.2767 9.3555 24.8728C10.2787 17.7747 16.517 10.6255 24.0812 10.6255Z" fill="#357180"/>
<path d="M29.5254 37.8418C29.8221 38.8086 28.8204 39.7271 27.352 40.1778C25.8831 40.6299 24.506 40.4434 24.2093 39.4767C23.9106 38.5092 24.8054 37.1274 26.2747 36.6765C27.7423 36.224 29.2271 36.8747 29.5254 37.8418Z" fill="#24626C"/>
<path d="M40.1288 24.6609H40.0439V24.6151C40.0439 24.1043 39.6297 23.6904 39.1189 23.6904C38.608 23.6904 38.1938 24.1043 38.1938 24.6151V25.8733C38.1938 26.2026 38.3666 26.4891 38.6255 26.6528C37.6488 32.3737 34.0486 36.1145 29.5969 38.0287C29.5943 38.0219 29.5969 38.0147 29.5943 38.0078C29.3642 37.2601 27.9871 37.0198 26.5193 37.4719C25.0504 37.9233 24.0477 38.8953 24.2777 39.643C24.5073 40.39 25.8834 40.6303 27.3522 40.1781C28.0544 39.9628 28.6437 39.6267 29.0497 39.2542C35.6154 37.9729 40.1288 31.928 40.1288 24.6609Z" fill="#357180"/>
</svg>
