<svg width="48" height="48" viewBox="0 0 48 48" fill="none" xmlns="http://www.w3.org/2000/svg">
<g clip-path="url(#clip0_243_4338)">
<path d="M47.9385 25.7124C47.9784 25.1467 48 24.5759 48 24C48 10.7452 37.2548 0 24 0C10.7452 0 0 10.7452 0 24C0 35.0408 7.45594 44.339 17.6071 47.1376L47.9385 25.7124Z" fill="#1B888E"/>
<path d="M47.9385 25.7124L29.5304 7.30435L11.1653 40.6957L17.6072 47.1376C19.6427 47.6988 21.7861 48 24 48C36.679 48 47.0602 38.168 47.9385 25.7124Z" fill="#135D61"/>
<path d="M26.0933 31.3044L23.9729 7.30435H11.1653V29.2174L26.0933 31.3044Z" fill="white"/>
<path d="M36.8347 29.2174V14.6087L31.6174 12.5217L29.5304 7.30435H23.9729L24.0063 31.3044L36.8347 29.2174Z" fill="#E8E6E6"/>
<path d="M29.5304 14.6087V7.30435L36.8348 14.6087H29.5304Z" fill="white"/>
<path d="M36.8348 29.2174H11.1653V40.6957H36.8348V29.2174Z" fill="#BBBABA"/>
</g>
<defs>
<clipPath id="clip0_243_4338">
<rect width="48" height="48" fill="white"/>
</clipPath>
</defs>
</svg>
