<svg width="48" height="48" viewBox="0 0 48 48" fill="none" xmlns="http://www.w3.org/2000/svg">
<path d="M24 48C37.2548 48 48 37.2548 48 24C48 10.7452 37.2548 0 24 0C10.7452 0 0 10.7452 0 24C0 37.2548 10.7452 48 24 48Z" fill="#FD8469"/>
<path d="M30.1333 40.2286L24 37.2952L17.8667 40.2286V27.8095H30.1333V40.2286Z" fill="#2B3B4E"/>
<path d="M24 31.5429C30.2277 31.5429 35.2762 26.4943 35.2762 20.2667C35.2762 14.039 30.2277 8.99048 24 8.99048C17.7723 8.99048 12.7238 14.039 12.7238 20.2667C12.7238 26.4943 17.7723 31.5429 24 31.5429Z" fill="#324A5E"/>
<path d="M24 29.0286C28.8391 29.0286 32.7619 25.1057 32.7619 20.2667C32.7619 15.4276 28.8391 11.5048 24 11.5048C19.1609 11.5048 15.2381 15.4276 15.2381 20.2667C15.2381 25.1057 19.1609 29.0286 24 29.0286Z" fill="white"/>
<path d="M24 16.2286C25.1048 14.8571 26.5905 14.5524 27.6952 14.9714C30.3238 16 30.9714 19.8476 28.6857 22.2476C24 27.2762 24 27.2762 24 27.2762C24 27.2762 24 27.2762 19.3143 22.2857C17.0286 19.8476 17.6762 16 20.3048 15.0095C21.4095 14.5524 22.8952 14.8571 24 16.2286Z" fill="#F9B54C"/>
</svg>
