<svg width="48" height="48" viewBox="0 0 48 48" fill="none" xmlns="http://www.w3.org/2000/svg">
<path d="M46.8233 16.5625C43.6926 6.94875 34.6585 0 24 0C10.7452 0 0 10.7452 0 24C0 33.0969 5.06119 41.0117 12.5213 45.0822L46.8233 16.5625Z" fill="#2C4290"/>
<path d="M48 24C48 21.4037 47.5861 18.9044 46.8234 16.5625L40.6957 10.4348L7.30435 31.3043L21.0821 45.0821L35.4783 45.0818C42.9385 41.0114 48 33.0969 48 24Z" fill="#383838"/>
<path d="M35.4783 38.5565V25.5656H24L21.8087 41.2178L35.4783 38.5565Z" fill="#BCDEF7"/>
<path d="M40.6957 31.3044H24L20.8696 14.6087L40.6957 20.8696V31.3044Z" fill="#00A085"/>
<path d="M40.6957 20.8696H20.8696L24 10.4348H40.6957V20.8696Z" fill="#2DB37F"/>
<path d="M35.4783 29.2174H24L20.8696 16.6956L38.6087 20.8696V26.087C36.8797 26.087 35.4783 27.4883 35.4783 29.2174Z" fill="#5AC779"/>
<path d="M38.6087 20.8696H20.8696L24 12.5217H35.4783C35.4783 14.2508 36.8797 15.6521 38.6087 15.6521V20.8696Z" fill="#85DC79"/>
<path d="M7.30435 31.3044H24V29.2174L20.8696 14.6087L7.30435 20.8696V31.3044Z" fill="#2DB37F"/>
<path d="M7.30435 20.8696H21.913L24 12.5217V10.4348H7.30435V20.8696Z" fill="#5AC779"/>
<path d="M12.5217 29.2174H24V16.6956L9.39131 20.8696V26.087C11.1203 26.087 12.5217 27.4883 12.5217 29.2174Z" fill="#85DC79"/>
<path d="M9.39131 20.8696H24V12.5218H12.5217C12.5217 14.2509 11.1203 15.6522 9.39131 15.6522V20.8696Z" fill="#AFF078"/>
<path d="M24 15.1304L20.7562 20.8695L24 26.6087C27.1697 26.6087 29.7391 24.0392 29.7391 20.8696C29.7391 17.7 27.1697 15.1304 24 15.1304Z" fill="#00A085"/>
<path d="M18.2609 20.8696C18.2609 24.0393 20.8304 26.6087 24 26.6087V15.1304C20.8303 15.1304 18.2609 17.6999 18.2609 20.8696Z" fill="#2DB37F"/>
<path d="M18.2609 28.1217C18.2609 23.581 18.2609 19.0434 18.2609 19.0434C18.2609 17.459 16.9758 16.1738 15.3913 16.1738C13.8068 16.1738 12.5217 17.4589 12.5217 19.0434V38.5565L27.6521 41.4824V37.5131C27.6522 32.3263 23.4476 28.1217 18.2609 28.1217Z" fill="white"/>
<path d="M13.5652 19.0062V21.3913L15.3913 20.7951L17.2174 21.3913V19.0052C17.2174 18.0199 16.3982 17.2174 15.3913 17.2174C14.3844 17.2174 13.5652 18.0198 13.5652 19.0062Z" fill="#BCDEF7"/>
<path d="M13.5652 21.3913L17.2175 21.3903C17.2175 20.3843 16.3983 19.5652 15.3914 19.5652C14.3845 19.5652 13.5652 20.3843 13.5652 21.3913Z" fill="#DDEFFB"/>
<path d="M21.913 40.2787L24 48C28.1578 48 32.0685 46.9422 35.4783 45.0818V41.687L21.913 40.2787Z" fill="#4A75C3"/>
<path d="M12.5217 41.687V45.0818C15.9315 46.9422 19.8422 48 24 48V40.2787L12.5217 41.687Z" fill="#458FDE"/>
<path d="M24 41.687H35.4783V38.5565H24L21.8087 40.1217L24 41.687Z" fill="#458FDE"/>
<path d="M24 38.5565H12.5217V41.687H24V38.5565Z" fill="#6FAEE8"/>
<path d="M34.1739 18.7826L32.9944 20.8696L34.1739 22.9566C35.3266 22.9566 36.2609 22.0222 36.2609 20.8696C36.2609 19.7169 35.3265 18.7826 34.1739 18.7826Z" fill="#00A085"/>
<path d="M32.087 20.8696C32.087 22.0222 33.0213 22.9566 34.1739 22.9566V18.7826C33.0213 18.7826 32.087 19.7169 32.087 20.8696Z" fill="#2DB37F"/>
<path d="M29.2174 8.34778L24 3.1304L22.4348 6.47821L24 8.34778H29.2174Z" fill="#85DC79"/>
<path d="M18.7826 8.34778H24V3.1304L18.7826 8.34778Z" fill="#AFF078"/>
</svg>
