<svg width="48" height="48" viewBox="0 0 48 48" fill="none" xmlns="http://www.w3.org/2000/svg">
<path d="M24 48C37.2548 48 48 37.2548 48 24C48 10.7452 37.2548 0 24 0C10.7452 0 0 10.7452 0 24C0 37.2548 10.7452 48 24 48Z" fill="#C75C5C"/>
<g opacity="0.2">
<path opacity="0.2" d="M24 42C24 42 10.5 36.9 10.5 25.875V15.675C10.5 15.675 14.85 10.5 24 10.5V42Z" fill="#231F20"/>
</g>
<g opacity="0.2">
<path opacity="0.2" d="M24 42C24 42 37.5 36.9 37.5 25.875V15.675C37.5 15.675 33.15 10.5 24 10.5V42Z" fill="#231F20"/>
</g>
<path d="M24 40.5C24 40.5 10.5 35.4 10.5 24.375V14.175C10.5 14.175 14.85 9 24 9V40.5Z" fill="#F5CF87"/>
<path d="M24 40.5C24 40.5 37.5 35.4 37.5 24.375V14.175C37.5 14.175 33.15 9 24 9V40.5Z" fill="#E0995E"/>
</svg>
