<svg width="64" height="64" viewBox="0 0 64 64" fill="none" xmlns="http://www.w3.org/2000/svg">
<path d="M60.0246 6.58057H3.97535C2.48677 6.58057 1.27997 7.78729 1.27997 9.27588V44.183C1.27997 45.6716 2.48677 46.8783 3.97535 46.8783H60.0246C61.5132 46.8783 62.72 45.6716 62.72 44.183V9.27589C62.72 7.78729 61.5132 6.58057 60.0246 6.58057Z" fill="#E7E3E6"/>
<path d="M59.3132 9.80908H4.68701V40.2076H59.3132V9.80908Z" fill="#656766"/>
<path d="M9.45481 11.3479C9.31127 11.3479 9.16773 11.4027 9.05816 11.5123C8.83901 11.7314 8.83901 12.0864 9.05816 12.3056L10.7901 14.0375L9.05816 15.7695C8.83901 15.9887 8.83901 16.3437 9.05816 16.5628C9.27731 16.782 9.63232 16.782 9.85147 16.5628L11.9801 14.4342C12.1992 14.215 12.1992 13.86 11.9801 13.6409L9.85145 11.5123C9.74189 11.4027 9.59835 11.3479 9.45481 11.3479Z" fill="#85BD57"/>
<path d="M14.3777 12.915C14.0679 12.915 13.8167 13.1663 13.8167 13.476C13.8167 13.7858 14.0677 14.0371 14.3777 14.0371L17.3885 14.0374C17.6983 14.0374 17.9495 13.7865 17.9495 13.4764C17.9495 13.1667 17.6984 12.9154 17.3885 12.9154L14.3777 12.915Z" fill="#53B1E2"/>
<path d="M50.5304 57.4195C53.1847 57.4195 54.7507 54.3433 53.1022 52.263C51.8776 50.7177 50.1847 49.5457 48.1948 48.9737L39.8843 46.5837C39.0227 45.4861 38.8136 44.1815 39.0402 42.7389L40.51 37.0187C41.2879 36.9856 41.6255 36.6099 41.6106 35.9628C41.5957 35.3536 41.8059 34.7678 42.1155 34.2447C42.1651 34.1603 42.1966 34.0809 42.1966 34.0179C42.1982 33.7101 41.7762 33.1987 41.8291 32.8958C41.9284 32.333 42.7361 31.7074 42.569 31.1612C42.1419 29.7626 41.0098 30.423 41.0098 30.423C41.0098 30.423 41.9797 23.7711 41.0098 21.8627C40.3394 20.5452 39.459 19.4992 38.4427 18.7047C38.441 18.7031 38.4394 18.7014 38.4377 18.6997C36.8256 17.2151 34.669 17.2449 34.477 16.0665C34.477 16.0665 34.1576 16.2369 34.2039 16.8692C34.2172 17.0612 34.2635 17.2929 34.3628 17.5759C33.8298 17.3227 33.4905 17.038 33.282 16.7566C32.6779 15.939 33.1512 15.1379 33.1512 15.1379C29.361 15.2455 27.7721 17.6736 27.7241 17.7497C27.7224 17.7514 27.7224 17.7514 27.7224 17.7514C25.7909 18.6219 24.0994 20.0222 22.9904 21.8627C21.8865 23.6966 22.9904 30.423 22.9904 30.423C22.9904 30.423 21.8583 29.7626 21.4313 31.1612C21.2641 31.7074 22.0718 32.333 22.1711 32.8958C22.224 33.1987 21.802 33.7101 21.802 34.0179C21.802 34.0809 21.8335 34.1603 21.8848 34.2447C22.1943 34.7678 22.4029 35.3536 22.3896 35.9628C22.3747 36.6099 22.7123 36.9856 23.4903 37.0187L24.96 42.7389C25.3443 44.1461 25.1165 45.4379 24.1159 46.5837L15.8055 48.9737C13.8156 49.5456 12.1223 50.7175 10.8976 52.2628C9.24872 54.343 10.8147 57.4195 13.4692 57.4195H50.5304Z" fill="#EC6E62"/>
</svg>
