<svg width="64" height="64" viewBox="0 0 64 64" fill="none" xmlns="http://www.w3.org/2000/svg">
<g clip-path="url(#clip0_220_2044)">
<path d="M30.1201 61.1558C46.5721 61.1558 59.9092 47.8188 59.9092 31.3667C59.9092 14.9147 46.5721 1.57764 30.1201 1.57764C13.668 1.57764 0.330982 14.9147 0.330982 31.3667C0.330982 47.8188 13.668 61.1558 30.1201 61.1558Z" fill="#E7E3E6"/>
<path d="M30.1203 62.0867C13.1815 62.0867 -0.599706 48.3055 -0.599706 31.3667C-0.599706 14.4279 13.1815 0.646729 30.1203 0.646729C47.0591 0.646729 60.8403 14.4279 60.8403 31.3667C60.8403 48.3055 47.0591 62.0867 30.1203 62.0867ZM30.1203 2.50855C14.2076 2.50855 1.26212 15.454 1.26212 31.3667C1.26212 47.2794 14.2076 60.2249 30.1203 60.2249C46.033 60.2249 58.9785 47.2794 58.9785 31.3667C58.9785 15.454 46.033 2.50855 30.1203 2.50855Z" fill="#D2D2D2"/>
<path d="M30.1203 62.0867C20.1482 62.0867 12.0354 48.3055 12.0354 31.3667C12.0354 14.4279 20.1482 0.646729 30.1203 0.646729C40.0918 0.646729 48.2045 14.4279 48.2045 31.3667C48.2045 48.3055 40.0918 62.0867 30.1203 62.0867ZM30.1203 2.50855C21.1748 2.50855 13.8973 15.454 13.8973 31.3667C13.8973 47.2794 21.1748 60.2249 30.1203 60.2249C39.0651 60.2249 46.3427 47.2794 46.3427 31.3667C46.3427 15.454 39.0652 2.50855 30.1203 2.50855Z" fill="#D2D2D2"/>
<path d="M31.0512 1.57764H29.1894V61.1558H31.0512V1.57764Z" fill="#D2D2D2"/>
<path d="M30.1203 49.4511C13.1815 49.4511 -0.599706 41.3383 -0.599706 31.3668C-0.599706 21.3947 13.1815 13.282 30.1203 13.282C47.0591 13.282 60.8403 21.3947 60.8403 31.3668C60.8403 41.3384 47.0591 49.4511 30.1203 49.4511ZM30.1203 15.1438C14.2076 15.1438 1.26212 22.4214 1.26212 31.3668C1.26212 40.3117 14.2076 47.5893 30.1203 47.5893C46.033 47.5893 58.9785 40.3117 58.9785 31.3668C58.9785 22.4214 46.033 15.1438 30.1203 15.1438Z" fill="#D2D2D2"/>
<path d="M59.9094 30.4358H0.331225V32.2976H59.9094V30.4358Z" fill="#D2D2D2"/>
<path d="M15.2048 20.1157C17.6673 20.1157 19.6635 18.1195 19.6635 15.6571C19.6635 13.1947 17.6673 11.1985 15.2048 11.1985C12.7424 11.1985 10.7462 13.1947 10.7462 15.6571C10.7462 18.1195 12.7424 20.1157 15.2048 20.1157Z" fill="#85BD57"/>
<path d="M45.0739 21.4419C47.5363 21.4419 49.5325 19.4457 49.5325 16.9833C49.5325 14.5208 47.5363 12.5247 45.0739 12.5247C42.6115 12.5247 40.6153 14.5208 40.6153 16.9833C40.6153 19.4457 42.6115 21.4419 45.0739 21.4419Z" fill="#EC6E62"/>
<path d="M15.2048 50.2087C17.6673 50.2087 19.6635 48.2125 19.6635 45.7501C19.6635 43.2877 17.6673 41.2915 15.2048 41.2915C12.7424 41.2915 10.7462 43.2877 10.7462 45.7501C10.7462 48.2125 12.7424 50.2087 15.2048 50.2087Z" fill="#FFC966"/>
<path d="M47.8254 63.3531C57.0896 63.3531 64.5996 55.843 64.5996 46.5789C64.5996 37.3148 57.0896 29.8047 47.8254 29.8047C38.5613 29.8047 31.0512 37.3148 31.0512 46.5789C31.0512 55.843 38.5613 63.3531 47.8254 63.3531Z" fill="#53B1E2"/>
<path d="M39.9893 39.6445H42.3294V53.5129H39.9893V39.6445Z" fill="white"/>
<path d="M55.5131 40.8544C56.4776 41.6617 56.9619 42.9049 56.9619 44.5852C56.9619 46.2644 56.4689 47.4947 55.483 48.2751C54.497 49.0555 52.9857 49.4452 50.9492 49.4452H48.4885V53.5129H46.1484V39.6445H50.9104C53.0137 39.6445 54.5465 40.0482 55.5131 40.8544ZM53.8554 46.5787C54.3248 46.0825 54.5616 45.3559 54.5616 44.3958C54.5616 43.4378 54.2623 42.7596 53.6681 42.3624C53.0718 41.9663 52.1397 41.7672 50.8695 41.7672H48.4885V47.3225H51.2075C52.5035 47.3225 53.3861 47.0749 53.8554 46.5787Z" fill="white"/>
</g>
<defs>
<clipPath id="clip0_220_2044">
<rect width="64" height="64" fill="white"/>
</clipPath>
</defs>
</svg>
