<svg width="64" height="64" viewBox="0 0 64 64" fill="none" xmlns="http://www.w3.org/2000/svg">
<path d="M58.2133 54.3944H5.78662C3.29766 54.3944 1.27996 52.3767 1.27996 49.8878V8.39753C1.27996 5.90857 3.29766 3.89087 5.78662 3.89087H58.2133C60.7022 3.89087 62.7199 5.90857 62.7199 8.39753V49.8878C62.7199 52.3767 60.7022 54.3944 58.2133 54.3944Z" fill="#E7E3E6"/>
<path d="M24.3521 21.0832C24.1828 21.222 24.0978 21.407 24.0978 21.637C24.0978 21.867 24.2015 22.0495 24.4084 22.1857C24.6159 22.3207 25.0946 22.4807 25.8446 22.6657C26.594 22.8507 27.1765 23.127 27.5909 23.497C28.0053 23.8657 28.2128 24.4045 28.2128 25.1133C28.2128 25.822 27.9472 26.397 27.4159 26.837C26.8846 27.2783 26.1853 27.4982 25.319 27.4982C24.0678 27.4982 22.9409 27.0357 21.9384 26.1082L22.9897 24.8195C23.8415 25.5657 24.629 25.9382 25.3528 25.9382C25.6765 25.9382 25.9309 25.8695 26.1159 25.7295C26.3003 25.5895 26.3928 25.402 26.3928 25.1645C26.3928 24.927 26.2947 24.7382 26.099 24.5995C25.9028 24.4595 25.5147 24.3182 24.9347 24.1745C24.0147 23.957 23.3422 23.672 22.9165 23.322C22.4903 22.9707 22.2778 22.4207 22.2778 21.6707C22.2778 20.9207 22.5472 20.342 23.0859 19.9357C23.6247 19.5282 24.2972 19.3245 25.104 19.3245C25.6315 19.3245 26.159 19.4157 26.6865 19.597C27.214 19.777 27.674 20.0332 28.0659 20.3657L27.1728 21.6545C26.4872 21.1345 25.7784 20.8745 25.0472 20.8745C24.7534 20.8745 24.5215 20.9433 24.3521 21.0832Z" fill="#85BD57"/>
<path d="M31.5646 21.0832C31.3953 21.222 31.3103 21.407 31.3103 21.637C31.3103 21.867 31.414 22.0495 31.6209 22.1857C31.8284 22.3207 32.3072 22.4807 33.0572 22.6657C33.8065 22.8507 34.389 23.127 34.8034 23.497C35.2178 23.8657 35.4253 24.4045 35.4253 25.1133C35.4253 25.822 35.1597 26.397 34.6284 26.837C34.0972 27.2783 33.3978 27.4982 32.5315 27.4982C31.2803 27.4982 30.1534 27.0357 29.1509 26.1082L30.2022 24.8195C31.054 25.5657 31.8415 25.9382 32.5653 25.9382C32.889 25.9382 33.1434 25.8695 33.3284 25.7295C33.5128 25.5895 33.6053 25.402 33.6053 25.1645C33.6053 24.927 33.5072 24.7382 33.3115 24.5995C33.1153 24.4595 32.7272 24.3182 32.1472 24.1745C31.2272 23.957 30.5547 23.672 30.129 23.322C29.7028 22.9707 29.4903 22.4207 29.4903 21.6707C29.4903 20.9207 29.7597 20.342 30.2984 19.9357C30.8372 19.5282 31.5097 19.3245 32.3165 19.3245C32.844 19.3245 33.3715 19.4157 33.899 19.597C34.4265 19.777 34.8865 20.0332 35.2784 20.3657L34.3853 21.6545C33.6997 21.1345 32.9909 20.8745 32.2597 20.8745C31.9659 20.8745 31.734 20.9433 31.5646 21.0832Z" fill="#85BD57"/>
<path d="M36.929 27.4084V19.5059H38.6921V25.8371H42.0615V27.4084H36.929Z" fill="#85BD57"/>
<path d="M62.72 12.8845V8.39757C62.72 5.90857 60.7023 3.89087 58.2133 3.89087H5.78661C3.29767 3.89087 1.27997 5.90857 1.27997 8.39757V12.8845H62.72Z" fill="#53B1E2"/>
<path d="M21.8427 13.7134H5.697V10.2326C5.697 9.36793 6.39795 8.66699 7.26261 8.66699H20.2771C21.1418 8.66699 21.8427 9.36795 21.8427 10.2326V13.7134Z" fill="#E7E3E6"/>
<path d="M37.9884 12.8844H21.8427V10.2326C21.8427 9.36793 22.5437 8.66699 23.4083 8.66699H36.4228C37.2875 8.66699 37.9884 9.36795 37.9884 10.2326V12.8844H37.9884Z" fill="#D2D2D2"/>
<path d="M51.7503 10.5017C52.7044 10.5017 53.4778 9.72833 53.4778 8.7743C53.4778 7.82027 52.7044 7.04688 51.7503 7.04688C50.7963 7.04688 50.0229 7.82027 50.0229 8.7743C50.0229 9.72833 50.7963 10.5017 51.7503 10.5017Z" fill="#E7E3E6"/>
<path d="M46.4826 10.5017C47.4366 10.5017 48.21 9.72833 48.21 8.7743C48.21 7.82027 47.4366 7.04688 46.4826 7.04688C45.5285 7.04688 44.7551 7.82027 44.7551 8.7743C44.7551 9.72833 45.5285 10.5017 46.4826 10.5017Z" fill="#E7E3E6"/>
<path d="M48.9605 46.814L51.9232 60.1093L45.9301 56.836V46.814H48.9605Z" fill="#656766"/>
<path d="M42.8997 46.814L39.9369 60.1093L45.9301 56.836V46.814H42.8997Z" fill="#4E4C4D"/>
<path d="M53.2293 45.5182L53.2293 45.5183V45.5183C53.2293 47.8781 51.3163 49.791 48.9566 49.791L48.9489 49.7987C47.2804 51.4672 44.5751 51.4672 42.9065 49.7987L42.8988 49.791H42.8987C40.539 49.791 38.6261 47.8781 38.6261 45.5183V45.5068L38.626 45.5067C36.9596 43.8403 36.9596 41.1385 38.6261 39.472L38.6261 39.472V39.455C38.6261 37.0983 40.5366 35.1878 42.8933 35.1878H42.9103C44.5768 33.5214 47.2786 33.5214 48.9451 35.1878H48.9566C51.3163 35.1878 53.2293 37.1008 53.2293 39.4605C54.9021 41.1333 54.9021 43.8454 53.2293 45.5182Z" fill="#EC6E62"/>
<path d="M45.9301 46.8139C48.3158 46.8139 50.2498 44.8798 50.2498 42.4941C50.2498 40.1083 48.3158 38.1743 45.9301 38.1743C43.5443 38.1743 41.6103 40.1083 41.6103 42.4941C41.6103 44.8798 43.5443 46.8139 45.9301 46.8139Z" fill="#FFC966"/>
<path d="M31.4386 33.938H7.22004V36.7859H31.4386V33.938Z" fill="#D2D2D2"/>
<path d="M31.4386 39.4644H7.22005V42.3123H31.4386V39.4644Z" fill="#D2D2D2"/>
<path d="M21.4963 44.9912H7.22003V47.8391H21.4963V44.9912Z" fill="#D2D2D2"/>
</svg>
