<svg width="64" height="64" viewBox="0 0 64 64" fill="none" xmlns="http://www.w3.org/2000/svg">
<path d="M58.2133 60.5001H5.78663C3.29767 60.5001 1.27997 58.4824 1.27997 55.9935V8.00642C1.27997 5.51746 3.29767 3.49976 5.78663 3.49976H58.2133C60.7023 3.49976 62.72 5.51746 62.72 8.00642V55.9935C62.72 58.4824 60.7023 60.5001 58.2133 60.5001Z" fill="#E7E3E6"/>
<path d="M62.72 12.4934V8.00646C62.72 5.51746 60.7023 3.49976 58.2133 3.49976H5.78661C3.29767 3.49976 1.27997 5.51746 1.27997 8.00646V12.4934H62.72Z" fill="#53B1E2"/>
<path d="M21.8427 13.3223H5.69699V9.84148C5.69699 8.97682 6.39794 8.27588 7.2626 8.27588H20.2771C21.1418 8.27588 21.8427 8.97683 21.8427 9.84148V13.3223Z" fill="#E7E3E6"/>
<path d="M37.9884 12.4933H21.8427V9.84148C21.8427 8.97682 22.5437 8.27588 23.4083 8.27588H36.4228C37.2875 8.27588 37.9884 8.97683 37.9884 9.84148V12.4933H37.9884Z" fill="#D2D2D2"/>
<path d="M51.7504 10.1106C52.7044 10.1106 53.4778 9.33722 53.4778 8.38319C53.4778 7.42916 52.7044 6.65576 51.7504 6.65576C50.7963 6.65576 50.0229 7.42916 50.0229 8.38319C50.0229 9.33722 50.7963 10.1106 51.7504 10.1106Z" fill="#E7E3E6"/>
<path d="M46.4825 10.1106C47.4366 10.1106 48.21 9.33722 48.21 8.38319C48.21 7.42916 47.4366 6.65576 46.4825 6.65576C45.5285 6.65576 44.7551 7.42916 44.7551 8.38319C44.7551 9.33722 45.5285 10.1106 46.4825 10.1106Z" fill="#E7E3E6"/>
<path d="M59.1157 15.6016H5.46399V25.935H59.1157V15.6016Z" fill="#D2D2D2"/>
<path d="M13.052 36.3442C15.0534 36.3442 16.6758 34.7218 16.6758 32.7204C16.6758 30.7191 15.0534 29.0967 13.052 29.0967C11.0507 29.0967 9.42825 30.7191 9.42825 32.7204C9.42825 34.7218 11.0507 36.3442 13.052 36.3442Z" fill="#EC6E62"/>
<path d="M32.2898 36.3442C34.2912 36.3442 35.9136 34.7218 35.9136 32.7204C35.9136 30.7191 34.2912 29.0967 32.2898 29.0967C30.2885 29.0967 28.6661 30.7191 28.6661 32.7204C28.6661 34.7218 30.2885 36.3442 32.2898 36.3442Z" fill="#85BD57"/>
<path d="M51.5277 36.3442C53.529 36.3442 55.1514 34.7218 55.1514 32.7204C55.1514 30.7191 53.529 29.0967 51.5277 29.0967C49.5263 29.0967 47.9039 30.7191 47.9039 32.7204C47.9039 34.7218 49.5263 36.3442 51.5277 36.3442Z" fill="#53B1E2"/>
<path d="M18.7721 40.4712H7.33188V41.4897H18.7721V40.4712Z" fill="#D2D2D2"/>
<path d="M18.7721 38.5474H7.33188V39.5659H18.7721V38.5474Z" fill="#D2D2D2"/>
<path d="M15.4387 42.395H7.33191V43.4136H15.4387V42.395Z" fill="#D2D2D2"/>
<path d="M38.01 40.4712H26.5697V41.4897H38.01V40.4712Z" fill="#D2D2D2"/>
<path d="M38.01 38.5474H26.5697V39.5659H38.01V38.5474Z" fill="#D2D2D2"/>
<path d="M34.6765 42.395H26.5697V43.4136H34.6765V42.395Z" fill="#D2D2D2"/>
<path d="M57.2478 40.4712H45.8076V41.4897H57.2478V40.4712Z" fill="#D2D2D2"/>
<path d="M57.2478 38.5474H45.8076V39.5659H57.2478V38.5474Z" fill="#D2D2D2"/>
<path d="M53.9144 42.395H45.8075V43.4136H53.9144V42.395Z" fill="#D2D2D2"/>
<path d="M20.2436 46H5.86038V55.5492H20.2436V46Z" fill="#EC6E62"/>
<path d="M39.4815 46H25.0982V55.5492H39.4815V46Z" fill="#85BD57"/>
<path d="M58.7193 46H44.336V55.5492H58.7193V46Z" fill="#53B1E2"/>
</svg>
