<svg width="64" height="64" viewBox="0 0 64 64" fill="none" xmlns="http://www.w3.org/2000/svg">
<path d="M31.9998 61.7889C48.4518 61.7889 61.7888 48.4519 61.7888 31.9998C61.7888 15.5477 48.4518 2.21069 31.9998 2.21069C15.5477 2.21069 2.21066 15.5477 2.21066 31.9998C2.21066 48.4519 15.5477 61.7889 31.9998 61.7889Z" fill="#E7E3E6"/>
<path d="M32 62.72C15.0612 62.72 1.27997 48.9388 1.27997 32C1.27997 15.0612 15.0612 1.28003 32 1.28003C48.9388 1.28003 62.72 15.0612 62.72 32C62.72 48.9388 48.9388 62.72 32 62.72ZM32 3.14185C16.0872 3.14185 3.14179 16.0873 3.14179 32C3.14179 47.9128 16.0873 60.8582 32 60.8582C47.9127 60.8582 60.8582 47.9128 60.8582 32C60.8582 16.0873 47.9127 3.14185 32 3.14185Z" fill="#D2D2D2"/>
<path d="M32 62.72C22.0278 62.72 13.9151 48.9388 13.9151 32C13.9151 15.0612 22.0278 1.28003 32 1.28003C41.9715 1.28003 50.0842 15.0612 50.0842 32C50.0842 48.9388 41.9715 62.72 32 62.72ZM32 3.14185C23.0545 3.14185 15.7769 16.0873 15.7769 32C15.7769 47.9127 23.0545 60.8582 32 60.8582C40.9448 60.8582 48.2224 47.9128 48.2224 32C48.2224 16.0873 40.9448 3.14185 32 3.14185Z" fill="#D2D2D2"/>
<path d="M32.9309 2.21094H31.0691V61.7891H32.9309V2.21094Z" fill="#D2D2D2"/>
<path d="M32 50.0844C15.0612 50.0844 1.27997 41.9716 1.27997 32.0001C1.27997 22.028 15.0612 13.9153 32 13.9153C48.9388 13.9153 62.72 22.028 62.72 32.0001C62.72 41.9717 48.9388 50.0844 32 50.0844ZM32 15.7771C16.0872 15.7771 3.14179 23.0547 3.14179 32.0001C3.14179 40.945 16.0873 48.2226 32 48.2226C47.9127 48.2226 60.8582 40.945 60.8582 32.0001C60.8582 23.0547 47.9127 15.7771 32 15.7771Z" fill="#D2D2D2"/>
<path d="M61.7891 31.0691H2.21088V32.9309H61.7891V31.0691Z" fill="#D2D2D2"/>
<path d="M61.7888 19.6864C61.7888 28.005 53.5485 34.509 53.5485 34.509C53.5485 34.509 45.3082 28.005 45.3082 19.6864C45.3082 15.1354 48.9975 11.446 53.5485 11.446C58.0995 11.446 61.7888 15.1354 61.7888 19.6864Z" fill="#FFC966"/>
<path d="M53.5485 24.59C56.2567 24.59 58.4522 22.3946 58.4522 19.6864C58.4522 16.9781 56.2567 14.7827 53.5485 14.7827C50.8403 14.7827 48.6449 16.9781 48.6449 19.6864C48.6449 22.3946 50.8403 24.59 53.5485 24.59Z" fill="white"/>
<path d="M18.8968 12.8192C18.8968 21.1378 10.6564 27.6418 10.6564 27.6418C10.6564 27.6418 2.41614 21.1378 2.41614 12.8192C2.41614 8.26818 6.10544 4.57886 10.6564 4.57886C15.2074 4.57886 18.8968 8.26818 18.8968 12.8192Z" fill="#53B1E2"/>
<path d="M10.6565 17.7228C13.3647 17.7228 15.5601 15.5274 15.5601 12.8192C15.5601 10.111 13.3647 7.91553 10.6565 7.91553C7.94826 7.91553 5.75282 10.111 5.75282 12.8192C5.75282 15.5274 7.94826 17.7228 10.6565 17.7228Z" fill="white"/>
<path d="M36.1353 43.5596C36.1353 51.8783 27.895 58.3823 27.895 58.3823C27.895 58.3823 19.6547 51.8783 19.6547 43.5596C19.6547 39.0087 23.344 35.3193 27.895 35.3193C32.446 35.3193 36.1353 39.0086 36.1353 43.5596Z" fill="#EC6E62"/>
<path d="M27.895 48.463C30.6032 48.463 32.7987 46.2676 32.7987 43.5594C32.7987 40.8512 30.6032 38.6558 27.895 38.6558C25.1868 38.6558 22.9914 40.8512 22.9914 43.5594C22.9914 46.2676 25.1868 48.463 27.895 48.463Z" fill="white"/>
</svg>
