<svg width="64" height="64" viewBox="0 0 64 64" fill="none" xmlns="http://www.w3.org/2000/svg">
<g clip-path="url(#clip0_220_2041)">
<path d="M56.0089 14.677H7.99103V51.2725H56.0089V14.677Z" fill="#4E4C4D"/>
<path d="M53.6924 46.3745H10.3076C5.32176 46.3745 1.27997 50.4163 1.27997 55.4021V55.4021C1.27997 60.388 5.32177 64.4298 10.3076 64.4298H53.6924C58.6782 64.4298 62.72 60.388 62.72 55.4021V55.4021C62.72 50.4163 58.6782 46.3745 53.6924 46.3745Z" fill="#656766"/>
<path d="M53.6924 22.9663H10.3076C5.32176 22.9663 1.27997 27.0081 1.27997 31.9939V31.9939C1.27997 36.9797 5.32177 41.0215 10.3076 41.0215H53.6924C58.6782 41.0215 62.72 36.9797 62.72 31.9939V31.9939C62.72 27.0081 58.6782 22.9663 53.6924 22.9663Z" fill="#656766"/>
<path d="M53.6924 -0.429932H10.3076C5.32176 -0.429932 1.27997 3.61187 1.27997 8.59768V8.59769C1.27997 13.5835 5.32177 17.6253 10.3076 17.6253H53.6924C58.6782 17.6253 62.72 13.5835 62.72 8.59769V8.59768C62.72 3.61187 58.6782 -0.429932 53.6924 -0.429932Z" fill="#656766"/>
<path d="M10.8966 12.0723C12.8156 12.0723 14.3712 10.5167 14.3712 8.59767C14.3712 6.67869 12.8156 5.12305 10.8966 5.12305C8.97764 5.12305 7.422 6.67869 7.422 8.59767C7.422 10.5167 8.97764 12.0723 10.8966 12.0723Z" fill="#EC6E62"/>
<path d="M20.7719 12.0723C22.6909 12.0723 24.2465 10.5167 24.2465 8.59767C24.2465 6.67869 22.6909 5.12305 20.7719 5.12305C18.8529 5.12305 17.2973 6.67869 17.2973 8.59767C17.2973 10.5167 18.8529 12.0723 20.7719 12.0723Z" fill="#85BD57"/>
<path d="M10.8966 35.4685C12.8156 35.4685 14.3712 33.9129 14.3712 31.9939C14.3712 30.0749 12.8156 28.5193 10.8966 28.5193C8.97764 28.5193 7.422 30.0749 7.422 31.9939C7.422 33.9129 8.97764 35.4685 10.8966 35.4685Z" fill="#EC6E62"/>
<path d="M20.7719 35.4685C22.6909 35.4685 24.2465 33.9129 24.2465 31.9939C24.2465 30.0749 22.6909 28.5193 20.7719 28.5193C18.8529 28.5193 17.2973 30.0749 17.2973 31.9939C17.2973 33.9129 18.8529 35.4685 20.7719 35.4685Z" fill="#85BD57"/>
<path d="M10.8966 58.8765C12.8156 58.8765 14.3712 57.3209 14.3712 55.4019C14.3712 53.4829 12.8156 51.9272 10.8966 51.9272C8.97764 51.9272 7.422 53.4829 7.422 55.4019C7.422 57.3209 8.97764 58.8765 10.8966 58.8765Z" fill="#EC6E62"/>
<path d="M20.7719 58.8765C22.6909 58.8765 24.2465 57.3209 24.2465 55.4019C24.2465 53.4829 22.6909 51.9272 20.7719 51.9272C18.8529 51.9272 17.2973 53.4829 17.2973 55.4019C17.2973 57.3209 18.8529 58.8765 20.7719 58.8765Z" fill="#85BD57"/>
<path d="M52.1697 49.8555L41.7802 60.2646C41.2686 60.7566 40.3929 60.7566 39.901 60.2646L29.4918 49.8555C28.6653 49.029 29.2655 47.5729 30.4757 47.5729H33.4666L31.5873 31.4179C31.4989 30.3455 32.6893 29.6765 33.5354 30.2865L39.9501 35.0877C40.3732 35.4026 40.9733 35.4026 41.3964 35.0877L47.8111 30.2865C48.6573 29.6765 49.8478 30.3455 49.7592 31.4179L47.8997 47.5729H51.2055C52.4156 47.5729 52.9961 49.029 52.1697 49.8555Z" fill="#53B1E2"/>
<path d="M40.8443 57.4734C39.9953 57.4734 39.3027 56.7808 39.3027 55.9318C39.3027 55.0827 39.9953 54.3901 40.8443 54.3901C41.6933 54.3901 42.3635 55.0827 42.3635 55.9318C42.3635 56.7808 41.6933 57.4734 40.8443 57.4734Z" fill="white"/>
<path d="M40.5452 50.8359V49.8691C39.335 49.7454 38.2494 49.2644 37.2866 48.4253L38.2534 47.2725C38.9955 47.9176 39.7586 48.3016 40.5452 48.4253V45.8554C39.5468 45.6169 38.8168 45.304 38.3528 44.9152C37.8896 44.5264 37.6576 43.9508 37.6576 43.1869C37.6576 42.4229 37.9244 41.798 38.4587 41.313C38.9931 40.8272 39.6883 40.562 40.5452 40.5184V39.8555H41.3924V40.5313C42.3641 40.6016 43.2824 40.9331 44.1474 41.5248L43.2865 42.7431C42.7036 42.3284 42.0723 42.0721 41.3924 41.9751V44.465H41.432C42.4474 44.7034 43.1935 45.026 43.6705 45.4318C44.1474 45.8384 44.3859 46.4277 44.3859 47.1998C44.3859 47.9726 44.1119 48.6015 43.5646 49.0874C43.0173 49.5732 42.293 49.8376 41.3924 49.882V50.8359H40.5452V50.8359ZM39.6115 42.2863C39.386 42.4852 39.2736 42.7317 39.2736 43.0276C39.2736 43.3235 39.3617 43.5579 39.538 43.7301C39.715 43.9023 40.0505 44.0672 40.5452 44.2265V41.9355C40.1475 41.9702 39.8362 42.0874 39.6115 42.2863ZM42.3989 48.0938C42.6462 47.8909 42.7699 47.6347 42.7699 47.3258C42.7699 47.017 42.6729 46.7721 42.4789 46.591C42.2841 46.4099 41.9227 46.2394 41.3924 46.0809V48.4649C41.8168 48.4204 42.1523 48.2975 42.3989 48.0938Z" fill="white"/>
</g>
<defs>
<clipPath id="clip0_220_2041">
<rect width="64" height="64" fill="white"/>
</clipPath>
</defs>
</svg>
