<svg width="64" height="64" viewBox="0 0 64 64" fill="none" xmlns="http://www.w3.org/2000/svg">
<path d="M33.792 22.3999H32.512V36.0959H33.792V22.3999Z" fill="#4D4C4D"/>
<path d="M50.304 47.1039H49.024V40.5759C49.024 38.6559 47.36 36.9919 45.44 36.9919H20.736C18.816 36.9919 17.152 38.6559 17.152 40.5759V47.1039H15.872V40.5759C15.872 37.8879 18.048 35.7119 20.736 35.7119H45.44C48.128 35.7119 50.304 37.8879 50.304 40.5759V47.1039Z" fill="#4D4C4D"/>
<path d="M62.72 17.6639C62.72 23.6799 57.856 28.5439 51.84 28.5439C45.824 28.5439 12.8 28.5439 10.496 28.5439C5.504 28.5439 1.408 24.4479 1.408 19.4559C1.408 14.4639 5.504 10.3679 10.496 10.3679C10.752 10.3679 11.008 10.3679 11.264 10.3679C13.056 4.73589 18.304 0.639893 24.576 0.639893C28.16 0.639893 31.36 1.91989 33.792 4.09589C35.2 2.55989 37.248 1.53589 39.552 1.53589C43.392 1.53589 46.464 4.22389 47.232 7.67989C48.64 7.03989 50.176 6.65589 51.84 6.65589C57.856 6.65589 62.72 11.6479 62.72 17.6639Z" fill="#E8E4E7"/>
<path d="M33.152 40.064C35.1314 40.064 36.736 38.4594 36.736 36.48C36.736 34.5006 35.1314 32.896 33.152 32.896C31.1726 32.896 29.568 34.5006 29.568 36.48C29.568 38.4594 31.1726 40.064 33.152 40.064Z" fill="#53B2E4"/>
<path d="M19.712 59.2642H8.576V61.1842H19.712V59.2642Z" fill="#4D4C4D"/>
<path d="M20.736 61.0562H7.552C6.912 61.0562 6.4 61.5681 6.4 62.2081C6.4 62.8481 6.912 63.3602 7.552 63.3602H20.736C21.376 63.3602 21.888 62.8481 21.888 62.2081C21.888 61.5681 21.376 61.0562 20.736 61.0562Z" fill="#656766"/>
<path d="M24.576 41.856H3.712C2.304 41.856 1.28 43.008 1.28 44.288V57.088C1.28 58.496 2.432 59.52 3.712 59.52H24.576C25.984 59.52 27.008 58.368 27.008 57.088V44.288C27.008 43.008 25.856 41.856 24.576 41.856Z" fill="#656766"/>
<path d="M3.712 56.5758C3.072 56.5758 2.432 56.0638 2.432 55.2958V44.2878C2.432 43.6478 2.944 43.0078 3.712 43.0078H24.576C25.216 43.0078 25.856 43.5198 25.856 44.2878V55.2958C25.856 55.9358 25.344 56.5758 24.576 56.5758H3.712Z" fill="#E8E4E7"/>
<path d="M25.856 45.0558V44.2878C25.856 43.6478 25.344 43.0078 24.576 43.0078H3.712C3.072 43.0078 2.432 43.5198 2.432 44.2878V45.0558H25.856Z" fill="#53B2E4"/>
<path d="M10.88 46.0801H3.712V55.4241H10.88V46.0801Z" fill="#FFCA65"/>
<path d="M24.448 46.0801H12.16V49.6641H24.448V46.0801Z" fill="#BC8D5D"/>
<path d="M24.448 50.688H12.16V51.712H24.448V50.688Z" fill="#D3D3D3"/>
<path d="M24.448 52.48H12.16V53.504H24.448V52.48Z" fill="#D3D3D3"/>
<path d="M24.448 54.3999H12.16V55.4239H24.448V54.3999Z" fill="#D3D3D3"/>
<path d="M55.424 59.2642H44.288V61.1842H55.424V59.2642Z" fill="#4D4C4D"/>
<path d="M56.448 61.0562H43.264C42.624 61.0562 42.112 61.5681 42.112 62.2081C42.112 62.8481 42.624 63.3602 43.264 63.3602H56.448C57.088 63.3602 57.6 62.8481 57.6 62.2081C57.6 61.5681 57.088 61.0562 56.448 61.0562Z" fill="#656766"/>
<path d="M60.288 41.856H39.424C38.016 41.856 36.992 43.008 36.992 44.288V57.088C36.992 58.496 38.144 59.52 39.424 59.52H60.288C61.696 59.52 62.72 58.368 62.72 57.088V44.288C62.72 43.008 61.568 41.856 60.288 41.856Z" fill="#656766"/>
<path d="M39.424 56.5758C38.784 56.5758 38.144 56.0638 38.144 55.2958V44.2878C38.144 43.6478 38.656 43.0078 39.424 43.0078H60.288C60.928 43.0078 61.568 43.5198 61.568 44.2878V55.2958C61.568 55.9358 61.056 56.5758 60.288 56.5758H39.424Z" fill="#E8E4E7"/>
<path d="M61.568 45.0558V44.2878C61.568 43.6478 61.056 43.0078 60.288 43.0078H39.424C38.784 43.0078 38.144 43.5198 38.144 44.2878V45.0558H61.568Z" fill="#53B2E4"/>
<path d="M46.592 46.0801H39.424V55.4241H46.592V46.0801Z" fill="#ED6F62"/>
<path d="M60.288 46.0801H48V49.6641H60.288V46.0801Z" fill="#86BE57"/>
<path d="M60.288 50.688H48V51.712H60.288V50.688Z" fill="#D3D3D3"/>
<path d="M60.288 52.48H48V53.504H60.288V52.48Z" fill="#D3D3D3"/>
<path d="M60.288 54.3999H48V55.4239H60.288V54.3999Z" fill="#D3D3D3"/>
</svg>
