<svg width="64" height="64" viewBox="0 0 64 64" fill="none" xmlns="http://www.w3.org/2000/svg">
<path d="M35.1068 48.6064H4.3161C2.63929 48.6064 1.27997 49.9658 1.27997 51.6426V58.9192C1.27997 60.596 2.63929 61.9554 4.3161 61.9554H35.1068C36.7836 61.9554 38.1429 60.596 38.1429 58.9192V51.6426C38.1429 49.9658 36.7836 48.6064 35.1068 48.6064Z" fill="#656766"/>
<path d="M35.1068 31.3H4.3161C2.63929 31.3 1.27997 32.6594 1.27997 34.3362V41.6128C1.27997 43.2896 2.63929 44.649 4.3161 44.649H35.1068C36.7836 44.649 38.1429 43.2896 38.1429 41.6128V34.3362C38.1429 32.6594 36.7836 31.3 35.1068 31.3Z" fill="#656766"/>
<path d="M35.1068 14.0022H4.3161C2.63929 14.0022 1.27997 15.3615 1.27997 17.0383V24.315C1.27997 25.9918 2.63929 27.3511 4.3161 27.3511H35.1068C36.7836 27.3511 38.1429 25.9918 38.1429 24.315V17.0383C38.1429 15.3615 36.7836 14.0022 35.1068 14.0022Z" fill="#656766"/>
<path d="M34.8849 44.6489H4.53795V48.6064H34.8849V44.6489Z" fill="#4E4C4D"/>
<path d="M34.8849 27.3425H4.53795V31.3H34.8849V27.3425Z" fill="#4E4C4D"/>
<path d="M8.38994 23.2455C9.80871 23.2455 10.9589 22.0954 10.9589 20.6766C10.9589 19.2578 9.80871 18.1077 8.38994 18.1077C6.97116 18.1077 5.82101 19.2578 5.82101 20.6766C5.82101 22.0954 6.97116 23.2455 8.38994 23.2455Z" fill="#EC6E62"/>
<path d="M15.6911 23.2455C17.1098 23.2455 18.26 22.0954 18.26 20.6766C18.26 19.2578 17.1098 18.1077 15.6911 18.1077C14.2723 18.1077 13.1221 19.2578 13.1221 20.6766C13.1221 22.0954 14.2723 23.2455 15.6911 23.2455Z" fill="#85BD57"/>
<path d="M8.38994 40.5434C9.80871 40.5434 10.9589 39.3932 10.9589 37.9744C10.9589 36.5557 9.80871 35.4055 8.38994 35.4055C6.97116 35.4055 5.82101 36.5557 5.82101 37.9744C5.82101 39.3932 6.97116 40.5434 8.38994 40.5434Z" fill="#EC6E62"/>
<path d="M15.6911 40.5434C17.1098 40.5434 18.26 39.3932 18.26 37.9744C18.26 36.5557 17.1098 35.4055 15.6911 35.4055C14.2723 35.4055 13.1221 36.5557 13.1221 37.9744C13.1221 39.3932 14.2723 40.5434 15.6911 40.5434Z" fill="#85BD57"/>
<path d="M8.38994 57.8498C9.80871 57.8498 10.9589 56.6996 10.9589 55.2808C10.9589 53.8621 9.80871 52.7119 8.38994 52.7119C6.97116 52.7119 5.82101 53.8621 5.82101 55.2808C5.82101 56.6996 6.97116 57.8498 8.38994 57.8498Z" fill="#EC6E62"/>
<path d="M15.6911 57.8498C17.1098 57.8498 18.26 56.6996 18.26 55.2808C18.26 53.8621 17.1098 52.7119 15.6911 52.7119C14.2723 52.7119 13.1221 53.8621 13.1221 55.2808C13.1221 56.6996 14.2723 57.8498 15.6911 57.8498Z" fill="#85BD57"/>
<path d="M59.8858 7.39653C54.1245 8.08158 49.3837 6.34767 45.4411 2.73926C44.4296 1.81348 42.9127 1.81348 41.9013 2.73926C37.9586 6.34775 33.2178 8.08157 27.4564 7.39653C25.9004 7.21157 24.5339 8.4917 24.6267 10.056C25.8458 30.6006 38.6804 38.2209 42.5639 40.0664C43.2693 40.4015 44.0731 40.4015 44.7784 40.0664C48.662 38.2209 61.4965 30.6006 62.7155 10.056C62.8083 8.4917 61.4419 7.21157 59.8858 7.39653Z" fill="#53B1E2"/>
<path d="M43.6657 36.3339C40.0292 34.4849 30.1211 27.9718 28.5814 11.3522C29.0183 11.3766 29.4514 11.3891 29.8808 11.3891C35.0207 11.3891 39.6436 9.68042 43.6707 6.30054C47.6978 9.68042 52.3219 11.3891 57.4606 11.3891C57.8887 11.3891 58.3218 11.3766 58.7587 11.3528C57.2077 27.9399 47.2496 34.495 43.6657 36.3339Z" fill="#22A7D4"/>
</svg>
