<svg width="64" height="64" viewBox="0 0 64 64" fill="none" xmlns="http://www.w3.org/2000/svg">
<path d="M45.184 12.032H18.688V17.792H45.184V12.032Z" fill="#4D4C4D"/>
<path d="M32.64 21.76H31.36V35.456H32.64V21.76Z" fill="#4D4C4D"/>
<path d="M49.28 46.464H48V39.936C48 38.016 46.336 36.352 44.416 36.352H19.584C17.664 36.352 16 38.016 16 39.936V46.464H14.72V39.936C14.72 37.248 16.896 35.072 19.584 35.072H44.288C46.976 35.072 49.152 37.248 49.152 39.936V46.464H49.28Z" fill="#4D4C4D"/>
<path d="M32 39.2959C33.9794 39.2959 35.584 37.6913 35.584 35.7119C35.584 33.7325 33.9794 32.1279 32 32.1279C30.0206 32.1279 28.416 33.7325 28.416 35.7119C28.416 37.6913 30.0206 39.2959 32 39.2959Z" fill="#ED6F62"/>
<path d="M19.712 58.624H8.576V60.544H19.712V58.624Z" fill="#4D4C4D"/>
<path d="M20.736 60.416H7.55199C6.91199 60.416 6.39999 60.928 6.39999 61.568C6.39999 62.208 6.91199 62.72 7.55199 62.72H20.736C21.376 62.72 21.888 62.208 21.888 61.568C21.888 60.928 21.376 60.416 20.736 60.416Z" fill="#656766"/>
<path d="M24.576 41.2158H3.712C2.432 41.2158 1.28 42.2398 1.28 43.6478V56.4478C1.28 57.8558 2.432 58.8798 3.712 58.8798H24.576C25.984 58.8798 27.008 57.7278 27.008 56.4478V43.6478C27.008 42.2398 25.856 41.2158 24.576 41.2158Z" fill="#656766"/>
<path d="M3.71199 55.8077C3.07199 55.8077 2.43199 55.2957 2.43199 54.5277V43.5197C2.43199 42.8797 2.94399 42.2397 3.71199 42.2397H24.576C25.216 42.2397 25.856 42.7517 25.856 43.5197V54.5277C25.856 55.1677 25.344 55.8077 24.576 55.8077H3.71199Z" fill="#E8E4E7"/>
<path d="M25.856 44.2877V43.5197C25.856 42.8797 25.344 42.2397 24.576 42.2397H3.71199C3.07199 42.2397 2.43199 42.7517 2.43199 43.5197V44.2877H25.856Z" fill="#53B2E4"/>
<path d="M10.88 45.312H3.71201V54.656H10.88V45.312Z" fill="#FFCA65"/>
<path d="M24.448 45.312H12.16V48.896H24.448V45.312Z" fill="#BC8D5D"/>
<path d="M24.448 49.9199H12.16V50.9439H24.448V49.9199Z" fill="#D3D3D3"/>
<path d="M24.448 51.8398H12.16V52.8638H24.448V51.8398Z" fill="#D3D3D3"/>
<path d="M24.448 53.6318H12.16V54.6558H24.448V53.6318Z" fill="#D3D3D3"/>
<path d="M55.424 58.624H44.288V60.544H55.424V58.624Z" fill="#4D4C4D"/>
<path d="M56.448 60.416H43.264C42.624 60.416 42.112 60.928 42.112 61.568C42.112 62.208 42.624 62.72 43.264 62.72H56.448C57.088 62.72 57.6 62.208 57.6 61.568C57.6 60.928 57.088 60.416 56.448 60.416Z" fill="#656766"/>
<path d="M60.288 41.2158H39.424C38.016 41.2158 36.992 42.3678 36.992 43.6478V56.4478C36.992 57.8558 38.144 58.8798 39.424 58.8798H60.288C61.696 58.8798 62.72 57.7278 62.72 56.4478V43.6478C62.72 42.2398 61.568 41.2158 60.288 41.2158Z" fill="#656766"/>
<path d="M39.424 55.8077C38.784 55.8077 38.144 55.2957 38.144 54.5277V43.5197C38.144 42.8797 38.656 42.2397 39.424 42.2397H60.288C60.928 42.2397 61.568 42.7517 61.568 43.5197V54.5277C61.568 55.1677 61.056 55.8077 60.288 55.8077H39.424Z" fill="#E8E4E7"/>
<path d="M61.568 44.2877V43.5197C61.568 42.8797 61.056 42.2397 60.288 42.2397H39.424C38.784 42.2397 38.144 42.7517 38.144 43.5197V44.2877H61.568Z" fill="#53B2E4"/>
<path d="M46.592 45.312H39.424V54.656H46.592V45.312Z" fill="#ED6F62"/>
<path d="M60.288 45.312H48V48.896H60.288V45.312Z" fill="#86BE57"/>
<path d="M60.288 49.9199H48V50.9439H60.288V49.9199Z" fill="#D3D3D3"/>
<path d="M60.288 51.8398H48V52.8638H60.288V51.8398Z" fill="#D3D3D3"/>
<path d="M60.288 53.6318H48V54.6558H60.288V53.6318Z" fill="#D3D3D3"/>
<path d="M46.848 1.28003H17.152C15.488 1.28003 14.08 2.68803 14.08 4.35203V9.72803C14.08 11.392 15.488 12.8 17.152 12.8H46.72C48.384 12.8 49.792 11.392 49.792 9.72803V4.35203C49.792 2.68803 48.512 1.28003 46.848 1.28003Z" fill="#656766"/>
<path d="M19.712 9.21601C20.9138 9.21601 21.888 8.24179 21.888 7.04001C21.888 5.83824 20.9138 4.86401 19.712 4.86401C18.5102 4.86401 17.536 5.83824 17.536 7.04001C17.536 8.24179 18.5102 9.21601 19.712 9.21601Z" fill="#ED6F62"/>
<path d="M25.344 9.21601C26.5458 9.21601 27.52 8.24179 27.52 7.04001C27.52 5.83824 26.5458 4.86401 25.344 4.86401C24.1422 4.86401 23.168 5.83824 23.168 7.04001C23.168 8.24179 24.1422 9.21601 25.344 9.21601Z" fill="#86BE57"/>
<path d="M30.976 9.21601C32.1778 9.21601 33.152 8.24179 33.152 7.04001C33.152 5.83824 32.1778 4.86401 30.976 4.86401C29.7742 4.86401 28.8 5.83824 28.8 7.04001C28.8 8.24179 29.7742 9.21601 30.976 9.21601Z" fill="#53B2E4"/>
<path d="M46.848 16.2561H17.152C15.488 16.2561 14.08 17.6641 14.08 19.3281V24.7041C14.08 26.3681 15.488 27.7761 17.152 27.7761H46.72C48.384 27.7761 49.792 26.3681 49.792 24.7041V19.2001C49.792 17.5361 48.512 16.2561 46.848 16.2561Z" fill="#656766"/>
<path d="M19.712 24.0639C20.9138 24.0639 21.888 23.0897 21.888 21.8879C21.888 20.6861 20.9138 19.7119 19.712 19.7119C18.5102 19.7119 17.536 20.6861 17.536 21.8879C17.536 23.0897 18.5102 24.0639 19.712 24.0639Z" fill="#ED6F62"/>
<path d="M25.344 24.0639C26.5458 24.0639 27.52 23.0897 27.52 21.8879C27.52 20.6861 26.5458 19.7119 25.344 19.7119C24.1422 19.7119 23.168 20.6861 23.168 21.8879C23.168 23.0897 24.1422 24.0639 25.344 24.0639Z" fill="#86BE57"/>
<path d="M30.976 24.0639C32.1778 24.0639 33.152 23.0897 33.152 21.8879C33.152 20.6861 32.1778 19.7119 30.976 19.7119C29.7742 19.7119 28.8 20.6861 28.8 21.8879C28.8 23.0897 29.7742 24.0639 30.976 24.0639Z" fill="#53B2E4"/>
</svg>
