<svg width="64" height="64" viewBox="0 0 64 64" fill="none" xmlns="http://www.w3.org/2000/svg">
<path d="M21.8792 20.8635H9.42529V23.0804H21.8792V20.8635Z" fill="#D2D2D2"/>
<path d="M23.0125 22.8113H8.29204C7.56006 22.8113 6.96667 23.4047 6.96667 24.1366C6.96667 24.8686 7.56006 25.462 8.29204 25.462H23.0125C23.7445 25.462 24.3378 24.8686 24.3378 24.1366C24.3378 23.4047 23.7445 22.8113 23.0125 22.8113Z" fill="#E7E3E6"/>
<path d="M27.329 1.28003H3.97551C2.45617 1.28003 1.22452 2.51168 1.22452 4.03098V18.3184C1.22452 19.8378 2.45617 21.0694 3.97551 21.0694H27.329C28.8484 21.0694 30.08 19.8377 30.08 18.3184V4.03098C30.08 2.51168 28.8484 1.28003 27.329 1.28003Z" fill="#E7E3E6"/>
<path d="M3.97568 17.7208C3.1971 17.7208 2.56372 17.0878 2.56372 16.3095V4.03093C2.56372 3.25269 3.1971 2.61963 3.97568 2.61963H27.3289C28.1074 2.61963 28.7408 3.25269 28.7408 4.03093V16.3095C28.7408 17.0878 28.1074 17.7208 27.3289 17.7208H3.97568Z" fill="#FFC966"/>
<path d="M54.5746 20.8635H42.1207V23.0804H54.5746V20.8635Z" fill="#D2D2D2"/>
<path d="M55.7079 22.8113H40.9874C40.2554 22.8113 39.662 23.4047 39.662 24.1366C39.662 24.8686 40.2554 25.462 40.9874 25.462H55.7079C56.4398 25.462 57.0332 24.8686 57.0332 24.1366C57.0332 23.4047 56.4398 22.8113 55.7079 22.8113Z" fill="#E7E3E6"/>
<path d="M60.0244 1.28003H36.6709C35.1515 1.28003 33.9199 2.51168 33.9199 4.03098V18.3184C33.9199 19.8378 35.1515 21.0694 36.6709 21.0694H60.0244C61.5437 21.0694 62.7754 19.8377 62.7754 18.3184V4.03098C62.7754 2.51168 61.5437 1.28003 60.0244 1.28003Z" fill="#E7E3E6"/>
<path d="M36.671 17.7208C35.8925 17.7208 35.2591 17.0878 35.2591 16.3095V4.03093C35.2591 3.25269 35.8925 2.61963 36.671 2.61963H60.0242C60.8028 2.61963 61.4362 3.25269 61.4362 4.03093V16.3095C61.4362 17.0878 60.8028 17.7208 60.0242 17.7208H36.671Z" fill="#53B1E2"/>
<path d="M21.8792 58.1216H9.42529V60.3385H21.8792V58.1216Z" fill="#D2D2D2"/>
<path d="M23.0125 60.0693H8.29204C7.56006 60.0693 6.96667 60.6627 6.96667 61.3947C6.96667 62.1267 7.56006 62.7201 8.29204 62.7201H23.0125C23.7445 62.7201 24.3378 62.1267 24.3378 61.3947C24.3378 60.6627 23.7445 60.0693 23.0125 60.0693Z" fill="#E7E3E6"/>
<path d="M27.329 38.5381H3.97551C2.45617 38.5381 1.22452 39.7697 1.22452 41.289V55.5765C1.22452 57.0958 2.45617 58.3275 3.97551 58.3275H27.329C28.8484 58.3275 30.08 57.0958 30.08 55.5765V41.289C30.08 39.7697 28.8484 38.5381 27.329 38.5381Z" fill="#E7E3E6"/>
<path d="M3.97568 54.9786C3.1971 54.9786 2.56372 54.3456 2.56372 53.5673V41.2887C2.56372 40.5105 3.1971 39.8774 3.97568 39.8774H27.3289C28.1074 39.8774 28.7408 40.5105 28.7408 41.2887V53.5673C28.7408 54.3456 28.1074 54.9786 27.3289 54.9786H3.97568Z" fill="#85BD57"/>
<path d="M54.5746 58.1216H42.1207V60.3385H54.5746V58.1216Z" fill="#D2D2D2"/>
<path d="M55.7079 60.0693H40.9874C40.2554 60.0693 39.662 60.6627 39.662 61.3947C39.662 62.1267 40.2554 62.7201 40.9874 62.7201H55.7079C56.4398 62.7201 57.0332 62.1267 57.0332 61.3947C57.0332 60.6627 56.4398 60.0693 55.7079 60.0693Z" fill="#E7E3E6"/>
<path d="M60.0244 38.5381H36.6709C35.1515 38.5381 33.9199 39.7697 33.9199 41.289V55.5765C33.9199 57.0958 35.1515 58.3275 36.6709 58.3275H60.0244C61.5437 58.3275 62.7754 57.0958 62.7754 55.5765V41.289C62.7754 39.7697 61.5437 38.5381 60.0244 38.5381Z" fill="#E7E3E6"/>
<path d="M36.671 54.9786C35.8925 54.9786 35.2591 54.3456 35.2591 53.5673V41.2887C35.2591 40.5105 35.8925 39.8774 36.671 39.8774H60.0242C60.8028 39.8774 61.4362 40.5105 61.4362 41.2887V53.5673C61.4362 54.3456 60.8028 54.9786 60.0242 54.9786H36.671Z" fill="#EC6E62"/>
<path d="M48.2216 14.7656H15.6674C13.8109 14.7656 12.3058 16.2707 12.3058 18.1272V23.9789C12.3058 25.8355 13.8109 27.3405 15.6674 27.3405H48.2216C50.0782 27.3405 51.5832 25.8355 51.5832 23.9789V18.1272C51.5832 16.2707 50.0782 14.7656 48.2216 14.7656Z" fill="#656766"/>
<path d="M18.3523 23.39C19.6429 23.39 20.6892 22.3438 20.6892 21.0532C20.6892 19.7626 19.6429 18.7163 18.3523 18.7163C17.0617 18.7163 16.0154 19.7626 16.0154 21.0532C16.0154 22.3438 17.0617 23.39 18.3523 23.39Z" fill="#EC6E62"/>
<path d="M24.5701 23.39C25.8607 23.39 26.907 22.3438 26.907 21.0532C26.907 19.7626 25.8607 18.7163 24.5701 18.7163C23.2795 18.7163 22.2333 19.7626 22.2333 21.0532C22.2333 22.3438 23.2795 23.39 24.5701 23.39Z" fill="#85BD57"/>
<path d="M30.788 23.39C32.0786 23.39 33.1249 22.3438 33.1249 21.0532C33.1249 19.7626 32.0786 18.7163 30.788 18.7163C29.4974 18.7163 28.4512 19.7626 28.4512 21.0532C28.4512 22.3438 29.4974 23.39 30.788 23.39Z" fill="#53B1E2"/>
<path d="M48.2216 31.1887H15.6674C13.8109 31.1887 12.3058 32.6938 12.3058 34.5503V40.402C12.3058 42.2586 13.8109 43.7636 15.6674 43.7636H48.2216C50.0782 43.7636 51.5832 42.2586 51.5832 40.402V34.5503C51.5832 32.6938 50.0782 31.1887 48.2216 31.1887Z" fill="#656766"/>
<path d="M18.3523 39.8131C19.6429 39.8131 20.6892 38.7669 20.6892 37.4763C20.6892 36.1857 19.6429 35.1394 18.3523 35.1394C17.0617 35.1394 16.0154 36.1857 16.0154 37.4763C16.0154 38.7669 17.0617 39.8131 18.3523 39.8131Z" fill="#EC6E62"/>
<path d="M24.5701 39.8131C25.8607 39.8131 26.907 38.7669 26.907 37.4763C26.907 36.1857 25.8607 35.1394 24.5701 35.1394C23.2795 35.1394 22.2333 36.1857 22.2333 37.4763C22.2333 38.7669 23.2795 39.8131 24.5701 39.8131Z" fill="#85BD57"/>
<path d="M30.788 39.8131C32.0786 39.8131 33.1249 38.7669 33.1249 37.4763C33.1249 36.1857 32.0786 35.1394 30.788 35.1394C29.4974 35.1394 28.4512 36.1857 28.4512 37.4763C28.4512 38.7669 29.4974 39.8131 30.788 39.8131Z" fill="#53B1E2"/>
<path d="M46.5289 27.3406H17.3601V31.1888H46.5289V27.3406Z" fill="#4E4C4D"/>
</svg>
