<svg width="64" height="64" viewBox="0 0 64 64" fill="none" xmlns="http://www.w3.org/2000/svg">
<path d="M55.3501 46.8569H8.64993C7.22484 46.8569 6.06958 45.7016 6.06958 44.2765V13.5171C6.06958 12.092 7.22484 10.9368 8.64993 10.9368H55.3501C56.7752 10.9368 57.9304 12.092 57.9304 13.5171V44.2765C57.9304 45.7016 56.7752 46.8569 55.3501 46.8569Z" fill="#656766"/>
<path d="M55.1863 13.6812H8.81384V44.1123H55.1863V13.6812Z" fill="white"/>
<path d="M1.28343 49.6353C1.20159 51.3974 2.57937 53.0633 4.55112 53.0633H59.4488C61.4206 53.0633 62.7983 51.3974 62.7165 49.6353H1.28343Z" fill="#656766"/>
<path d="M38.5356 49.6353H25.4644L27.4842 51.3493H36.5157L38.5356 49.6353Z" fill="#4E4C4D"/>
<path d="M29.2043 26.9673C31.8816 26.9673 34.052 24.7968 34.052 22.1195C34.052 19.4421 31.8816 17.2717 29.2043 17.2717C26.5269 17.2717 24.3565 19.4421 24.3565 22.1195C24.3565 24.7968 26.5269 26.9673 29.2043 26.9673Z" fill="#EC6E62"/>
<path d="M37.1333 33.2253C35.2513 30.9356 32.4008 29.4746 29.2043 29.4746C26.0077 29.4746 23.1572 30.9356 21.2752 33.2253C19.9864 34.7931 21.1424 37.1642 23.172 37.1642H35.2366C37.2661 37.1642 38.4221 34.7931 37.1333 33.2253Z" fill="#EC6E62"/>
<path d="M41.2831 41.4041H34.0691C33.4115 41.4041 32.8785 40.871 32.8785 40.2135V35.2407C32.8785 34.5831 33.4116 34.05 34.0691 34.05H41.2831C41.9407 34.05 42.4738 34.5831 42.4738 35.2407V40.2135C42.4738 40.871 41.9407 41.4041 41.2831 41.4041Z" fill="#656766"/>
<path d="M35.2616 34.05V32.064C35.2616 30.7456 36.3512 29.656 37.6805 29.656C39.0098 29.656 40.0885 30.7456 40.0885 32.064V34.05H41.1781V32.064C41.1781 30.1354 39.6091 28.5664 37.6805 28.5664C35.741 28.5664 34.172 30.1354 34.172 32.064V34.05H35.2616Z" fill="#656766"/>
<path d="M37.6762 39.1186C38.4447 39.1186 39.0677 38.4955 39.0677 37.727C39.0677 36.9585 38.4447 36.3354 37.6762 36.3354C36.9076 36.3354 36.2846 36.9585 36.2846 37.727C36.2846 38.4955 36.9076 39.1186 37.6762 39.1186Z" fill="#E7E3E6"/>
</svg>
