<svg width="64" height="64" viewBox="0 0 64 64" fill="none" xmlns="http://www.w3.org/2000/svg">
<path d="M26.9714 1.28003H20.0786C17.7497 1.28003 15.8594 3.17032 15.8594 5.49924L15.8594 12.8361H17.3103V14.7167H15.8594L15.8593 58.5007C15.8593 60.8297 17.7496 62.72 20.0785 62.72H26.9713C27.8277 60.8088 29.7598 59.472 32.0052 59.472C34.2401 59.472 36.1722 60.8088 37.039 62.72H43.9317C46.2606 62.72 48.1405 60.8297 48.1405 58.5007L48.1406 14.7167H46.9395V12.8361H48.1406L48.1406 5.49924C48.1406 3.17033 46.2607 1.28003 43.9318 1.28003H37.0391C36.1618 3.20163 34.2401 4.52799 32.0053 4.52799C29.7599 4.52799 27.8382 3.20163 26.9714 1.28003ZM44.7657 12.8361V14.7167H42.3636V12.8361H44.7657ZM40.1898 12.8361V14.7167H37.7877V12.836L40.1898 12.8361ZM35.6139 12.8361V14.7167H33.2118V12.8361H35.6139V12.8361ZM31.038 12.8361V14.7167H28.6359V12.836L31.038 12.8361ZM26.4621 12.8361V14.7167H24.06V12.8361H26.4621V12.8361ZM21.8862 12.8361V14.7167H19.4841V12.8361H21.8862Z" fill="#E7E3E6"/>
<path d="M42.3676 47.9967C42.3676 49.5816 41.7638 51.1665 40.5573 52.374C38.2085 54.7218 34.4237 54.781 32.0025 52.5515C29.5813 54.781 25.7945 54.7198 23.4426 52.3689C21.0959 50.0211 21.0357 46.2353 23.2652 43.8141C21.0327 41.3929 21.0887 37.603 23.4375 35.2542C25.7894 32.9034 29.5783 32.8442 32.0025 35.0767C34.4237 32.8473 38.2085 32.9064 40.5573 35.2542C42.9071 37.605 42.9693 41.3929 40.7398 43.8141C41.825 44.9921 42.3676 46.4944 42.3676 47.9967ZM22.1586 47.9997C22.1586 49.448 22.7093 50.8972 23.8118 51.9997C26.0209 54.2078 29.6119 54.2098 31.8179 52.0048L32.0025 51.8202L32.1871 52.0048C34.3931 54.2098 37.9821 54.2098 40.1881 52.0048C42.3951 49.7968 42.3982 46.2068 40.1932 43.9987L40.0086 43.8141L40.1932 43.6295C42.3982 41.4245 42.3951 37.8325 40.1881 35.6234C37.9821 33.4184 34.3931 33.4184 32.1871 35.6234L32.0025 35.808L31.8179 35.6234C29.6089 33.4153 26.0158 33.4153 23.8068 35.6234C21.6008 37.8304 21.6058 41.4204 23.8118 43.6295L23.9964 43.8141L23.8118 43.9987C22.7093 45.1012 22.1586 46.5505 22.1586 47.9997Z" fill="#656766"/>
<path d="M24.6956 36.5007C20.6562 40.5401 20.6561 47.083 24.6956 51.1225C28.7276 55.1546 35.2705 55.1546 39.3099 51.1152C43.342 47.0831 43.342 40.5402 39.31 36.5081C35.2705 32.4686 28.7277 32.4686 24.6956 36.5007ZM35.6175 47.4228C33.6237 49.4167 30.3892 49.4166 28.3953 47.4228C26.4014 45.4289 26.4014 42.1943 28.3953 40.2004C30.3892 38.2066 33.6237 38.2066 35.6176 40.2005C37.6114 42.1943 37.6114 45.4289 35.6175 47.4228Z" fill="#FFC966"/>
<path d="M28.3953 47.4226C27.6655 46.6928 27.2091 45.7955 27.0136 44.855L22.9981 48.8705C23.4509 49.6755 24.0103 50.437 24.6956 51.1223C25.3781 51.8049 26.1367 52.3621 26.9388 52.8135L30.9514 48.801C30.0151 48.604 29.1221 48.1494 28.3953 47.4226Z" fill="#EC6E62"/>
<path d="M35.6176 40.2003C36.3443 40.927 36.799 41.8201 36.9959 42.7564L41.0012 38.7511C40.5497 37.949 39.9925 37.1904 39.31 36.5079C38.6246 35.8226 37.8631 35.2632 37.0582 34.8103L33.05 38.8185C33.9905 39.0141 34.8878 39.4705 35.6176 40.2003Z" fill="#EC6E62"/>
<path d="M22.9981 38.7524L27.0136 42.7679C27.2091 41.8274 27.6655 40.9301 28.3953 40.2003C29.1221 39.4736 30.0152 39.0188 30.9515 38.8219L26.9389 34.8093C26.1368 35.2608 25.3782 35.818 24.6956 36.5006C24.0102 37.1859 23.4509 37.9473 22.9981 38.7524Z" fill="#EC6E62"/>
<path d="M41.0012 48.8715L36.996 44.8662C36.799 45.8025 36.3443 46.6956 35.6175 47.4224C34.8878 48.1522 33.9905 48.6086 33.05 48.8041L37.0581 52.8123C37.8631 52.3595 38.6246 51.8001 39.3099 51.1148C39.9925 50.4322 40.5497 49.6736 41.0012 48.8715Z" fill="#EC6E62"/>
<path d="M22.2309 23.5018C22.0219 23.4386 21.8566 23.354 21.7353 23.2489L21.9219 22.8287C22.0402 22.9236 22.1871 23.0001 22.3594 23.0592C22.5328 23.1194 22.7062 23.149 22.8806 23.149C23.0968 23.149 23.2579 23.1143 23.365 23.0449C23.4711 22.9756 23.5252 22.8848 23.5252 22.7706C23.5252 22.688 23.4946 22.6196 23.4354 22.5656C23.3763 22.5115 23.3008 22.4697 23.209 22.4391C23.1172 22.4085 22.9928 22.3739 22.8357 22.3351C22.6134 22.2821 22.4349 22.2301 22.2972 22.177C22.1606 22.125 22.0422 22.0424 21.9443 21.9302C21.8464 21.818 21.7975 21.6661 21.7975 21.4753C21.7975 21.3152 21.8403 21.1684 21.928 21.0368C22.0147 20.9052 22.1463 20.8012 22.3227 20.7237C22.4981 20.6462 22.7133 20.6074 22.9683 20.6074C23.1458 20.6074 23.3202 20.6299 23.4915 20.6737C23.6629 20.7176 23.8118 20.7818 23.9362 20.8644L23.7659 21.2846C23.6384 21.2092 23.5058 21.1531 23.3671 21.1143C23.2284 21.0756 23.0938 21.0562 22.9642 21.0562C22.7511 21.0562 22.592 21.0919 22.489 21.1643C22.385 21.2357 22.3329 21.3315 22.3329 21.4509C22.3329 21.5335 22.3625 21.6008 22.4217 21.6538C22.4818 21.7069 22.5573 21.7477 22.6481 21.7783C22.7399 21.8089 22.8643 21.8435 23.0224 21.8823C23.2386 21.9323 23.415 21.9843 23.5537 22.0383C23.6924 22.0924 23.8107 22.174 23.9086 22.2851C24.0076 22.3963 24.0565 22.5452 24.0565 22.7339C24.0565 22.894 24.0127 23.0399 23.925 23.1694C23.8383 23.2999 23.7057 23.404 23.5292 23.4815C23.3518 23.559 23.1356 23.5977 22.8806 23.5977C22.6572 23.5977 22.44 23.5651 22.2309 23.5018Z" fill="#656766"/>
<path d="M24.903 23.2591C24.6787 23.0337 24.5665 22.7104 24.5665 22.2891V20.6492H25.107V22.2688C25.107 22.8389 25.3528 23.1244 25.8464 23.1244C26.336 23.1244 26.5808 22.8389 26.5808 22.2688V20.6492H27.1121V22.2891C27.1121 22.7104 27.001 23.0337 26.7786 23.2591C26.5553 23.4844 26.2432 23.5977 25.8413 23.5977C25.4405 23.5977 25.1274 23.4844 24.903 23.2591Z" fill="#656766"/>
<path d="M29.723 20.7736C29.9097 20.8562 30.0535 20.9755 30.1524 21.1305C30.2523 21.2856 30.3023 21.4702 30.3023 21.6833C30.3023 21.8934 30.2524 22.077 30.1524 22.233C30.0535 22.3891 29.9097 22.5094 29.723 22.592C29.5364 22.6757 29.3161 22.7165 29.0652 22.7165H28.4084V23.5558H27.8689V20.6492H29.0652C29.3161 20.6491 29.5364 20.6899 29.723 20.7736ZM29.5751 22.1106C29.6975 22.0107 29.7587 21.8679 29.7587 21.6833C29.7587 21.4977 29.6975 21.3549 29.5751 21.255C29.4538 21.155 29.2753 21.1061 29.0397 21.1061H28.4084V22.2606H29.0397C29.2753 22.2606 29.4538 22.2106 29.5751 22.1106Z" fill="#656766"/>
<path d="M32.697 20.7736C32.8836 20.8562 33.0274 20.9755 33.1264 21.1305C33.2263 21.2856 33.2763 21.4702 33.2763 21.6833C33.2763 21.8934 33.2263 22.077 33.1264 22.233C33.0274 22.3891 32.8836 22.5094 32.697 22.592C32.5104 22.6757 32.2901 22.7165 32.0392 22.7165H31.3824V23.5558H30.8428V20.6492H32.0392C32.2901 20.6491 32.5104 20.6899 32.697 20.7736ZM32.5491 22.1106C32.6715 22.0107 32.7327 21.8679 32.7327 21.6833C32.7327 21.4977 32.6715 21.3549 32.5491 21.255C32.4277 21.155 32.2493 21.1061 32.0137 21.1061H31.3824V22.2606H32.0137C32.2493 22.2606 32.4277 22.2106 32.5491 22.1106Z" fill="#656766"/>
<path d="M34.4134 23.404C34.1758 23.2754 33.9892 23.097 33.8535 22.8685C33.7179 22.6401 33.6495 22.3851 33.6495 22.1026C33.6495 21.8201 33.7179 21.5641 33.8535 21.3366C33.9892 21.1082 34.1758 20.9287 34.4134 20.8002C34.6521 20.6717 34.9193 20.6074 35.2151 20.6074C35.5118 20.6074 35.7791 20.6717 36.0167 20.8002C36.2553 20.9287 36.442 21.1072 36.5776 21.3336C36.7133 21.561 36.7806 21.817 36.7806 22.1026C36.7806 22.3871 36.7133 22.6441 36.5776 22.8706C36.442 23.098 36.2553 23.2754 36.0167 23.404C35.7791 23.5335 35.5118 23.5977 35.2151 23.5977C34.9193 23.5977 34.6521 23.5335 34.4134 23.404ZM35.7383 22.9929C35.8933 22.9062 36.0157 22.7839 36.1044 22.6278C36.1932 22.4718 36.237 22.2963 36.237 22.1026C36.237 21.9088 36.1932 21.7334 36.1044 21.5773C36.0157 21.4203 35.8933 21.2989 35.7383 21.2112C35.5833 21.1245 35.4089 21.0806 35.2151 21.0806C35.0213 21.0806 34.8469 21.1245 34.6919 21.2112C34.5369 21.2989 34.4155 21.4202 34.3268 21.5773C34.238 21.7334 34.1942 21.9088 34.1942 22.1026C34.1942 22.2963 34.238 22.4718 34.3268 22.6278C34.4155 22.7839 34.5369 22.9062 34.6919 22.9929C34.8469 23.0807 35.0213 23.1245 35.2151 23.1245C35.4089 23.1245 35.5833 23.0807 35.7383 22.9929Z" fill="#656766"/>
<path d="M39.2559 23.5558L38.6613 22.7042C38.6368 22.7073 38.5991 22.7083 38.5501 22.7083H37.8933V23.5558H37.3538V20.6492H38.5501C38.801 20.6492 39.0213 20.69 39.2079 20.7736C39.3946 20.8562 39.5384 20.9755 39.6373 21.1306C39.7373 21.2856 39.7872 21.4702 39.7872 21.6833C39.7872 21.9016 39.7342 22.0903 39.6271 22.2473C39.521 22.4054 39.3681 22.5227 39.1682 22.6002L39.8372 23.5559H39.2559V23.5558ZM39.0601 21.255C38.9387 21.155 38.7602 21.1061 38.5246 21.1061H37.8933V22.2647H38.5246C38.7602 22.2647 38.9387 22.2137 39.0601 22.1127C39.1825 22.0117 39.2436 21.8679 39.2436 21.6833C39.2436 21.4977 39.1825 21.3549 39.0601 21.255Z" fill="#656766"/>
<path d="M40.9377 21.1061H39.9739V20.6492H42.441V21.1061H41.4772V23.5558H40.9377V21.1061H40.9377Z" fill="#656766"/>
<path d="M25.4272 25.8077H24.4634V25.3508H26.9306V25.8077H25.9668V28.2575H25.4272V25.8077H25.4272Z" fill="#656766"/>
<path d="M27.3375 25.3508H27.877V28.2575H27.3375V25.3508Z" fill="#656766"/>
<path d="M29.212 28.1056C28.9754 27.9771 28.7898 27.7996 28.6562 27.5722C28.5216 27.3458 28.4543 27.0888 28.4543 26.8042C28.4543 26.5187 28.5226 26.2627 28.6582 26.0352C28.7939 25.8088 28.9795 25.6304 29.2161 25.5018C29.4527 25.3733 29.7179 25.3091 30.0116 25.3091C30.2503 25.3091 30.4675 25.3509 30.6633 25.4335C30.8602 25.5161 31.0264 25.6375 31.1621 25.7945L30.8133 26.123C30.6032 25.8955 30.3441 25.7823 30.0371 25.7823C29.8372 25.7823 29.6587 25.8262 29.5007 25.9129C29.3436 26.0006 29.2202 26.1219 29.1315 26.277C29.0427 26.432 28.9989 26.6074 28.9989 26.8042C28.9989 27.0011 29.0427 27.1765 29.1315 27.3315C29.2202 27.4865 29.3436 27.6079 29.5007 27.6946C29.6587 27.7823 29.8372 27.8262 30.0371 27.8262C30.3441 27.8262 30.6032 27.7109 30.8132 27.4815L31.162 27.8129C31.0264 27.971 30.8591 28.0914 30.6613 28.175C30.4634 28.2576 30.2462 28.2994 30.0075 28.2994C29.7138 28.2994 29.4486 28.2351 29.212 28.1056Z" fill="#656766"/>
<path d="M32.6817 27.0408L32.2207 27.514V28.2575H31.6812V25.3508H32.2207V26.8409L33.6577 25.3508H34.2646L33.0427 26.6502L34.339 28.2575H33.7077L32.6817 27.0408Z" fill="#656766"/>
<path d="M36.8897 27.8047V28.2575H34.7092V25.3508H36.8316V25.8026H35.2487V26.5594H36.6521V27.0031H35.2487V27.8047H36.8897Z" fill="#656766"/>
<path d="M38.081 25.8077H37.1172V25.3508H39.5843V25.8077H38.6205V28.2575H38.081V25.8077H38.081Z" fill="#656766"/>
</svg>
